<?xml version="1.0" encoding="utf-8"?>
<!-- Generator: Adobe Illustrator 24.3.0, SVG Export Plug-In . SVG Version: 6.00 Build 0)  -->
<svg version="1.1" id="Layer_1" xmlns="http://www.w3.org/2000/svg" xmlns:xlink="http://www.w3.org/1999/xlink" x="0px" y="0px"
	 viewBox="0 0 902 500" style="enable-background:new 0 0 902 500;" xml:space="preserve">
<style type="text/css">
	.st0{fill:#3939B7;}
	.st1{opacity:0.9;}
	.st2{fill:#F5F5F5;}
</style>
<path class="st0" d="M885.4,500H16.6C7.4,500,0,492.6,0,483.4V16.6C0,7.4,7.4,0,16.6,0h868.8c9.2,0,16.6,7.4,16.6,16.6v466.8
	C902,492.6,894.6,500,885.4,500z"/>
<g class="st1">
	<path class="st2" d="M370.2,176.4v31.6c0,43-35,78-78,78h-130c-14.3,0-26,11.6-26,26v31.5c22.9,10.1,39,32.9,39,59.5
		c0,35.9-29.1,65-65,65c-35.9,0-65-29.1-65-65c0-26.7,16.1-49.5,39-59.5v-167c-23.1-10.1-39.2-32.9-39.2-59.5c0-35.9,29.1-65,65-65
		c35.9,0,65,29.1,65,65c0,26.7-16.1,49.5-39,59.5v62.3c8.1-2.9,16.9-4.8,26-4.8h130c14.3,0,26-11.6,26-26v-31.5
		c-22.9-10.1-39-32.9-39-59.5c0-35.9,29.1-65,65-65c35.9,0,65,29.1,65,65C409.2,143.5,393.1,166.3,370.2,176.4z M90.6,116.8
		c0,10.8,8.7,19.5,19.5,19.5s19.5-8.7,19.5-19.5s-8.7-19.5-19.5-19.5S90.6,106.1,90.6,116.8z M129.6,402.9
		c0-10.8-8.7-19.5-19.5-19.5s-19.5,8.7-19.5,19.5c0,10.8,8.7,19.5,19.5,19.5S129.6,413.7,129.6,402.9z M324.6,116.8
		c0,10.8,8.7,19.5,19.5,19.5c10.8,0,19.5-8.7,19.5-19.5s-8.7-19.5-19.5-19.5C333.4,97.3,324.6,106.1,324.6,116.8z"/>
</g>
<g>
	<path class="st2" d="M205.5,342.5c0,4.7-1.4,8.6-4.3,11.7c-2.9,3-7.1,4.6-12.6,4.6c-2,0-3.9-0.2-5.7-0.6s-3.5-1-5.2-1.8l2.5-5.6
		c1.4,0.7,2.8,1.1,4.1,1.4c1.4,0.3,2.8,0.4,4.5,0.4c2.8,0,4.9-0.8,6.3-2.5c1.4-1.6,2.2-3.8,2.2-6.4v-2h-0.1c-1,1.6-2.2,2.8-3.7,3.6
		c-1.5,0.8-3.2,1.2-5.2,1.2c-3.6,0-6.4-1.3-8.5-3.8c-2.1-2.5-3.1-5.9-3.1-10.2c0-4.7,1.2-8.5,3.6-11.3c2.4-2.8,5.4-4.2,9.3-4.2
		c1.8,0,3.2,0.3,4.6,1c1.3,0.7,2.4,1.7,3.2,3h0.1v-3.4h8.2L205.5,342.5L205.5,342.5z M197.4,332.4v-2.5c0-1.9-0.6-3.4-1.7-4.7
		c-1.1-1.3-2.5-1.9-4.3-1.9c-2,0-3.6,0.8-4.7,2.4c-1.2,1.5-1.7,3.7-1.7,6.6c0,2.5,0.6,4.4,1.7,5.8s2.6,2.1,4.5,2.1s3.4-0.7,4.6-2.1
		C196.8,336.6,197.4,334.8,197.4,332.4z"/>
	<path class="st2" d="M217.4,313.9c-1.4,0-2.6-0.4-3.5-1.3c-0.9-0.8-1.4-1.9-1.4-3.2c0-1.4,0.4-2.5,1.4-3.3c0.9-0.8,2-1.3,3.5-1.3
		s2.6,0.4,3.5,1.3c0.9,0.8,1.4,1.9,1.4,3.3s-0.4,2.5-1.4,3.3C220,313.4,218.8,313.9,217.4,313.9z M221.5,345.9h-8.2v-28.2h8.2V345.9
		z"/>
	<path class="st2" d="M246.9,345.4c-0.8,0.3-1.8,0.7-2.9,0.8c-1,0.2-2.1,0.3-3.2,0.3c-3,0-5.2-0.8-6.8-2.2c-1.5-1.4-2.3-3.6-2.3-6.5
		v-14.1h-4.6v-6.1h4.6v-6.3l8.2-2.4v8.7h6.4v6.1h-6.4v13.5c0,1.2,0.3,1.9,0.7,2.5c0.4,0.5,1.1,0.8,2,0.8c0.5,0,0.9-0.1,1.4-0.2
		c0.4-0.1,0.8-0.3,1.3-0.5L246.9,345.4z"/>
	<path class="st2" d="M249.5,333.8v-5.8h14.7v5.8H249.5z"/>
	<path class="st2" d="M276.2,313.9c-1.4,0-2.6-0.4-3.5-1.3c-0.9-0.8-1.4-1.9-1.4-3.2c0-1.4,0.4-2.5,1.4-3.3c0.9-0.8,2-1.3,3.5-1.3
		s2.6,0.4,3.5,1.3c0.9,0.8,1.4,1.9,1.4,3.3s-0.4,2.5-1.4,3.3C278.8,313.4,277.7,313.9,276.2,313.9z M280.2,345.9H272v-28.2h8.2
		V345.9z"/>
	<path class="st2" d="M315.2,345.9h-8.2v-15.7c0-2.3-0.4-4-1.2-5.1c-0.8-1.1-2-1.7-3.6-1.7c-1.6,0-2.9,0.6-3.9,1.9
		c-1,1.2-1.5,2.8-1.5,4.7v16.1h-8.2v-28.2h8.2v4.5h0.1c1-1.8,2.3-3,3.8-3.9c1.5-0.8,3.3-1.3,5.2-1.3c3.1,0,5.4,0.9,7,2.9
		s2.4,4.8,2.4,8.7L315.2,345.9L315.2,345.9z"/>
	<path class="st2" d="M339.5,311.2c-0.5-0.3-1-0.4-1.4-0.5c-0.4-0.1-0.8-0.2-1.4-0.2c-1.2,0-2.1,0.3-2.8,1.1c-0.7,0.7-0.9,1.8-0.9,3
		v3h6.4v6.1h-6.4v22.1H325v-22.1h-4.7v-6.1h4.7v-3.6c0-3,1-5.4,3-7.2c2-1.8,4.7-2.7,8-2.7c1.2,0,2.2,0.1,3,0.3
		c0.8,0.2,1.7,0.3,2.5,0.6L339.5,311.2z"/>
	<path class="st2" d="M357.6,346.5c-4.7,0-8.3-1.4-10.9-4c-2.7-2.6-4-6.2-4-10.7c0-4.7,1.4-8.3,4.1-10.9c2.7-2.6,6.5-4,11.2-4
		s8.2,1.3,10.8,3.9c2.6,2.6,4,6.1,4,10.5c0,4.7-1.4,8.3-4.1,11.1C365.9,345.2,362.2,346.5,357.6,346.5z M357.8,340.2
		c2.2,0,3.8-0.8,4.9-2.2s1.6-3.6,1.6-6.4c0-2.7-0.6-4.7-1.7-6.2c-1.1-1.4-2.8-2.1-5-2.1c-2.1,0-3.8,0.8-5,2.2
		c-1.2,1.5-1.8,3.6-1.8,6.3c0,2.8,0.6,4.9,1.7,6.3C353.8,339.5,355.5,340.2,357.8,340.2z"/>
</g>
<g>
	<path class="st2" d="M364.8,384h-9.3v29.7h-3V384h-9.3v-2.7h21.7V384z"/>
	<path class="st2" d="M388.1,413.7h-2.9v-13.6c0-2.6-0.5-4.5-1.4-5.7c-0.9-1.2-2.4-1.9-4.3-1.9c-1.9,0-3.5,0.7-4.9,2.2
		c-1.4,1.5-2.1,3.5-2.1,6v13h-2.9v-34.2h2.9v15.1h0.1c0.9-1.5,2-2.7,3.3-3.4c1.3-0.8,2.8-1.1,4.5-1.1c2.6,0,4.5,0.8,5.8,2.4
		c1.3,1.6,2,3.9,2,7V413.7z"/>
	<path class="st2" d="M413.2,402.6h-16.7c0,3.1,0.8,5.4,2.2,6.9c1.4,1.5,3.4,2.3,5.8,2.3c1.1,0,2.2-0.2,3.3-0.5
		c1.1-0.3,2.2-0.9,3.2-1.7l1.4,2.1c-1.3,0.9-2.6,1.6-3.9,2c-1.3,0.4-2.8,0.6-4.3,0.6c-3.2,0-5.7-1-7.7-3c-2-2-3-5-3-9
		c0-3.6,1-6.5,2.9-8.8c1.9-2.3,4.5-3.4,7.6-3.4c2.9,0,5.2,1,6.8,3c1.6,2,2.4,4.7,2.4,8.2V402.6z M410.2,400.1
		c-0.1-2.4-0.6-4.3-1.8-5.6c-1.1-1.3-2.6-2-4.6-2c-2,0-3.6,0.7-4.9,2c-1.3,1.3-2.1,3.2-2.4,5.6H410.2z"/>
	<path class="st2" d="M429.3,412l1.4-2.3c0.9,0.6,1.8,1.1,2.8,1.5c1,0.4,2.1,0.6,3.2,0.6c1.7,0,3.1-0.4,3.9-1.1
		c0.9-0.7,1.3-1.8,1.3-3.1c0-1-0.4-1.9-1.1-2.6c-0.7-0.7-2-1.3-4-1.9c-2.6-0.7-4.4-1.6-5.4-2.7c-1-1.1-1.5-2.4-1.5-3.9
		c0-1.9,0.7-3.4,2.1-4.6c1.4-1.2,3.3-1.8,5.6-1.8c1.1,0,2.2,0.1,3.3,0.4s2.2,0.8,3.3,1.5l-1.4,2.2c-0.9-0.5-1.8-0.9-2.6-1.2
		c-0.9-0.3-1.8-0.4-2.7-0.4c-1.6,0-2.7,0.3-3.6,1c-0.8,0.6-1.2,1.5-1.2,2.6c0,1.1,0.4,1.9,1.1,2.5c0.7,0.6,2,1.2,3.9,1.7
		c2.4,0.7,4.2,1.6,5.3,2.7c1.1,1.1,1.7,2.5,1.7,4.2c0,2.2-0.7,3.9-2.2,5.1c-1.4,1.2-3.4,1.9-5.9,1.9c-1.3,0-2.6-0.2-3.9-0.6
		C431.6,413.3,430.4,412.7,429.3,412z"/>
	<path class="st2" d="M451.8,384.9c-0.6,0-1.2-0.2-1.6-0.6c-0.4-0.4-0.6-1-0.6-1.6c0-0.6,0.2-1.1,0.6-1.6c0.4-0.4,1-0.6,1.6-0.6
		c0.6,0,1.2,0.2,1.6,0.6c0.4,0.4,0.7,0.9,0.7,1.6c0,0.6-0.2,1.2-0.7,1.6C452.9,384.7,452.4,384.9,451.8,384.9z M453.2,413.7h-2.9
		v-23.1h2.9V413.7z"/>
	<path class="st2" d="M492.6,413.7h-2.9v-13.6c0-2.7-0.4-4.7-1.3-5.8s-2.2-1.7-4.1-1.7c-1.7,0-3.2,0.8-4.4,2.3
		c-1.2,1.5-1.8,3.4-1.8,5.6v13.4h-2.9v-13.9c0-2.4-0.5-4.2-1.4-5.5c-0.9-1.2-2.3-1.8-4.2-1.8c-1.8,0-3.2,0.7-4.4,2.2
		c-1.2,1.5-1.7,3.4-1.7,5.7v13.3h-2.9v-23.1h2.9v3.7h0.1c0.8-1.4,1.8-2.5,3-3.2c1.2-0.7,2.6-1.1,4.1-1.1c1.6,0,3,0.5,4.2,1.4
		c1.2,0.9,2,2.1,2.4,3.6c0.8-1.6,1.8-2.9,3.2-3.7c1.3-0.9,2.8-1.3,4.4-1.3c2.5,0,4.4,0.8,5.7,2.4c1.3,1.6,1.9,3.9,1.9,7.1V413.7z"/>
	<path class="st2" d="M502.5,410L502.5,410l-0.1,14.4h-2.9v-33.8h2.9v4.4h0.1c0.9-1.6,2-2.8,3.5-3.7c1.4-0.8,3.1-1.3,4.9-1.3
		c2.9,0,5.3,1,6.9,3.1c1.7,2,2.5,4.8,2.5,8.3c0,3.9-0.9,7-2.8,9.3c-1.9,2.4-4.4,3.5-7.6,3.5c-1.6,0-3-0.4-4.3-1.1
		C504.4,412.5,503.4,411.4,502.5,410z M502.4,401v3.1c0,2.1,0.7,3.9,2,5.4c1.3,1.5,3.1,2.2,5.3,2.2c2.3,0,4.1-0.9,5.5-2.8
		c1.4-1.9,2.1-4.4,2.1-7.6c0-2.7-0.6-4.9-1.9-6.5s-3-2.4-5.1-2.4c-2.4,0-4.3,0.8-5.7,2.5C503.1,396.6,502.4,398.6,502.4,401z"/>
	<path class="st2" d="M526.1,413.7v-34.2h2.9v34.2H526.1z"/>
	<path class="st2" d="M554.5,402.6h-16.7c0,3.1,0.8,5.4,2.2,6.9c1.4,1.5,3.4,2.3,5.8,2.3c1.1,0,2.2-0.2,3.3-0.5
		c1.1-0.3,2.2-0.9,3.2-1.7l1.4,2.1c-1.3,0.9-2.6,1.6-3.9,2c-1.3,0.4-2.8,0.6-4.3,0.6c-3.2,0-5.7-1-7.7-3c-2-2-3-5-3-9
		c0-3.6,1-6.5,2.9-8.8c1.9-2.3,4.5-3.4,7.6-3.4c2.9,0,5.2,1,6.8,3c1.6,2,2.4,4.7,2.4,8.2V402.6z M551.6,400.1
		c-0.1-2.4-0.6-4.3-1.8-5.6c-1.1-1.3-2.6-2-4.6-2c-2,0-3.6,0.7-4.9,2c-1.3,1.3-2.1,3.2-2.4,5.6H551.6z"/>
	<path class="st2" d="M583,413.3c-0.6,0.3-1.2,0.5-1.8,0.6c-0.6,0.1-1.3,0.2-2,0.2c-1.7,0-3-0.5-3.9-1.5c-0.9-1-1.4-2.5-1.4-4.4
		v-15.2h-4.1v-2.5h4.1v-5.9l2.9-0.9v6.8h6v2.5h-6v14.8c0,1.3,0.2,2.3,0.7,2.9c0.5,0.6,1.2,0.9,2.2,0.9c0.5,0,1-0.1,1.4-0.2
		c0.4-0.1,0.8-0.3,1.1-0.5L583,413.3z"/>
	<path class="st2" d="M596.7,414.2c-3.4,0-6.1-1.1-8.1-3.3s-3-5.1-3-8.6c0-3.9,1-6.9,3.1-9c2.1-2.2,4.9-3.3,8.4-3.3
		c3.4,0,6,1.1,7.9,3.2c1.9,2.1,2.9,5.1,2.9,8.9c0,3.6-1,6.6-3,8.8C602.9,413.1,600.1,414.2,596.7,414.2z M596.8,411.7
		c2.6,0,4.6-0.8,6-2.5c1.4-1.7,2.1-4,2.1-7.1c0-3.1-0.7-5.5-2.1-7.1c-1.4-1.7-3.4-2.5-5.9-2.5c-2.5,0-4.6,0.9-6.1,2.6
		c-1.5,1.7-2.3,4.1-2.3,7.2c0,2.9,0.7,5.2,2.2,6.9C592.3,410.9,594.3,411.7,596.8,411.7z"/>
	<path class="st2" d="M623.2,414.2c-3.4,0-6.1-1.1-8.1-3.3c-2-2.2-3-5.1-3-8.6c0-3.9,1-6.9,3.1-9c2.1-2.2,4.9-3.3,8.4-3.3
		c3.4,0,6,1.1,7.9,3.2c1.9,2.1,2.9,5.1,2.9,8.9c0,3.6-1,6.6-3,8.8C629.4,413.1,626.6,414.2,623.2,414.2z M623.4,411.7
		c2.6,0,4.6-0.8,6-2.5c1.4-1.7,2.1-4,2.1-7.1c0-3.1-0.7-5.5-2.1-7.1c-1.4-1.7-3.4-2.5-5.9-2.5c-2.5,0-4.6,0.9-6.1,2.6
		c-1.5,1.7-2.3,4.1-2.3,7.2c0,2.9,0.7,5.2,2.2,6.9C618.8,410.9,620.8,411.7,623.4,411.7z"/>
	<path class="st2" d="M640.2,413.7v-34.2h2.9v34.2H640.2z"/>
	<path class="st2" d="M673.4,413.3c-0.6,0.3-1.2,0.5-1.8,0.6c-0.6,0.1-1.3,0.2-2,0.2c-1.7,0-3-0.5-3.9-1.5c-0.9-1-1.4-2.5-1.4-4.4
		v-15.2h-4.1v-2.5h4.1v-5.9l2.9-0.9v6.8h6v2.5h-6v14.8c0,1.3,0.2,2.3,0.7,2.9c0.5,0.6,1.2,0.9,2.2,0.9c0.5,0,1-0.1,1.4-0.2
		c0.4-0.1,0.8-0.3,1.1-0.5L673.4,413.3z"/>
	<path class="st2" d="M687.1,414.2c-3.4,0-6.1-1.1-8.1-3.3s-3-5.1-3-8.6c0-3.9,1-6.9,3.1-9c2.1-2.2,4.9-3.3,8.4-3.3
		c3.4,0,6,1.1,7.9,3.2c1.9,2.1,2.9,5.1,2.9,8.9c0,3.6-1,6.6-3,8.8C693.2,413.1,690.5,414.2,687.1,414.2z M687.2,411.7
		c2.6,0,4.6-0.8,6-2.5c1.4-1.7,2.1-4,2.1-7.1c0-3.1-0.7-5.5-2.1-7.1c-1.4-1.7-3.4-2.5-5.9-2.5c-2.5,0-4.6,0.9-6.1,2.6
		c-1.5,1.7-2.3,4.1-2.3,7.2c0,2.9,0.7,5.2,2.2,6.9C682.7,410.9,684.7,411.7,687.2,411.7z"/>
	<path class="st2" d="M727.8,393.1c-0.3-0.1-0.6-0.2-0.9-0.2c-0.3,0-0.6-0.1-0.9-0.1c-1.9,0-3.5,0.9-4.6,2.6c-1.1,1.8-1.7,4.1-1.7,7
		v11.3h-2.9v-23.1h2.9v4.9h0.1c0.5-1.7,1.4-3,2.5-3.9c1.1-0.9,2.5-1.4,4-1.4c0.4,0,0.8,0,1.1,0.1c0.3,0,0.7,0.1,1,0.2L727.8,393.1z"
		/>
	<path class="st2" d="M749.9,402.6h-16.7c0,3.1,0.8,5.4,2.2,6.9c1.4,1.5,3.4,2.3,5.8,2.3c1.1,0,2.2-0.2,3.3-0.5
		c1.1-0.3,2.2-0.9,3.2-1.7l1.4,2.1c-1.3,0.9-2.6,1.6-3.9,2c-1.3,0.4-2.8,0.6-4.3,0.6c-3.2,0-5.7-1-7.7-3c-2-2-3-5-3-9
		c0-3.6,1-6.5,2.9-8.8c1.9-2.3,4.5-3.4,7.6-3.4c2.9,0,5.2,1,6.8,3c1.6,2,2.4,4.7,2.4,8.2V402.6z M747,400.1
		c-0.1-2.4-0.6-4.3-1.7-5.6c-1.1-1.3-2.6-2-4.6-2c-2,0-3.6,0.7-4.9,2c-1.3,1.3-2.1,3.2-2.4,5.6H747z"/>
	<path class="st2" d="M765.7,413.3c-0.6,0.3-1.2,0.5-1.8,0.6c-0.6,0.1-1.3,0.2-2,0.2c-1.7,0-3-0.5-3.9-1.5c-0.9-1-1.4-2.5-1.4-4.4
		v-15.2h-4.1v-2.5h4.1v-5.9l2.9-0.9v6.8h6v2.5h-6v14.8c0,1.3,0.2,2.3,0.7,2.9c0.5,0.6,1.2,0.9,2.2,0.9c0.5,0,1-0.1,1.4-0.2
		c0.4-0.1,0.8-0.3,1.1-0.5L765.7,413.3z"/>
	<path class="st2" d="M781.3,393.1c-0.3-0.1-0.6-0.2-0.9-0.2c-0.3,0-0.6-0.1-0.9-0.1c-1.9,0-3.5,0.9-4.6,2.6c-1.1,1.8-1.7,4.1-1.7,7
		v11.3h-2.9v-23.1h2.9v4.9h0.1c0.5-1.7,1.4-3,2.5-3.9c1.1-0.9,2.4-1.4,4-1.4c0.4,0,0.8,0,1.1,0.1c0.3,0,0.7,0.1,1,0.2L781.3,393.1z"
		/>
	<path class="st2" d="M787.4,384.9c-0.6,0-1.2-0.2-1.6-0.6c-0.4-0.4-0.6-1-0.6-1.6c0-0.6,0.2-1.1,0.6-1.6c0.4-0.4,1-0.6,1.6-0.6
		s1.2,0.2,1.6,0.6c0.4,0.4,0.7,0.9,0.7,1.6c0,0.6-0.2,1.2-0.7,1.6C788.6,384.7,788,384.9,787.4,384.9z M788.8,413.7h-2.9v-23.1h2.9
		V413.7z"/>
	<path class="st2" d="M814.4,402.6h-16.7c0,3.1,0.8,5.4,2.2,6.9c1.4,1.5,3.4,2.3,5.8,2.3c1.1,0,2.2-0.2,3.3-0.5
		c1.1-0.3,2.2-0.9,3.2-1.7l1.4,2.1c-1.3,0.9-2.6,1.6-3.9,2c-1.3,0.4-2.8,0.6-4.3,0.6c-3.2,0-5.7-1-7.7-3c-2-2-3-5-3-9
		c0-3.6,1-6.5,2.9-8.8c1.9-2.3,4.5-3.4,7.6-3.4c2.9,0,5.2,1,6.8,3c1.6,2,2.4,4.7,2.4,8.2V402.6z M811.4,400.1
		c-0.1-2.4-0.6-4.3-1.7-5.6c-1.1-1.3-2.6-2-4.6-2c-2,0-3.6,0.7-4.9,2c-1.3,1.3-2.1,3.2-2.4,5.6H811.4z"/>
	<path class="st2" d="M837.5,390.6l-9.2,23.1h-2.8l-8.9-23.1h3.2l6.4,17.6c0.2,0.5,0.4,1,0.5,1.5c0.1,0.5,0.2,0.9,0.3,1.3h0.1
		c0.1-0.5,0.2-1,0.3-1.5c0.1-0.5,0.2-0.9,0.4-1.3l6.6-17.7H837.5z"/>
	<path class="st2" d="M859.4,402.6h-16.7c0,3.1,0.8,5.4,2.2,6.9c1.4,1.5,3.4,2.3,5.8,2.3c1.1,0,2.2-0.2,3.3-0.5
		c1.1-0.3,2.2-0.9,3.2-1.7l1.4,2.1c-1.3,0.9-2.6,1.6-3.9,2c-1.3,0.4-2.8,0.6-4.3,0.6c-3.2,0-5.7-1-7.7-3c-2-2-3-5-3-9
		c0-3.6,1-6.5,2.9-8.8c1.9-2.3,4.5-3.4,7.6-3.4c2.9,0,5.2,1,6.8,3c1.6,2,2.4,4.7,2.4,8.2V402.6z M856.5,400.1
		c-0.1-2.4-0.6-4.3-1.7-5.6c-1.1-1.3-2.6-2-4.6-2c-2,0-3.6,0.7-4.9,2c-1.3,1.3-2.1,3.2-2.4,5.6H856.5z"/>
	<path class="st2" d="M370.3,437.6l-11.4,28.4c-0.7,1.7-1.6,3-2.7,4.1c-1.2,1-2.5,1.6-4.1,1.6c-0.4,0-0.8,0-1.2-0.1
		c-0.4-0.1-0.7-0.1-1.1-0.2l0.6-2.6c0.3,0.1,0.5,0.2,0.7,0.2c0.2,0,0.5,0.1,0.8,0.1c0.9,0,1.7-0.3,2.4-0.9c0.7-0.6,1.2-1.3,1.6-2.3
		l2.2-5.2l-8.9-23h3.2l6.6,18.3c0.1,0.2,0.2,0.5,0.2,0.8c0.1,0.3,0.2,0.6,0.3,0.9h0.1c0.1-0.2,0.1-0.5,0.2-0.7s0.2-0.6,0.3-0.9
		l7-18.4H370.3z"/>
	<path class="st2" d="M383.5,461.2c-3.4,0-6.1-1.1-8.1-3.3c-2-2.2-3-5.1-3-8.6c0-3.9,1-6.9,3.1-9s4.9-3.3,8.4-3.3
		c3.4,0,6,1.1,7.9,3.2c1.9,2.1,2.9,5.1,2.9,8.9c0,3.6-1,6.6-3,8.8C389.7,460.1,387,461.2,383.5,461.2z M383.7,458.7
		c2.6,0,4.6-0.8,6-2.5c1.4-1.7,2.1-4,2.1-7.1c0-3.1-0.7-5.5-2.1-7.1c-1.4-1.7-3.4-2.5-5.9-2.5c-2.5,0-4.6,0.9-6.1,2.6
		c-1.5,1.7-2.3,4.1-2.3,7.2c0,2.9,0.7,5.2,2.2,6.9C379.1,457.9,381.1,458.7,383.7,458.7z"/>
	<path class="st2" d="M418.5,460.7h-2.9v-3.9h-0.1c-0.8,1.5-1.8,2.6-3,3.4c-1.2,0.7-2.6,1.1-4.3,1.1c-2.7,0-4.8-0.8-6.2-2.5
		c-1.4-1.7-2.1-4.2-2.1-7.6v-13.6h2.9v13c0,2.8,0.5,4.8,1.5,6.2c1,1.3,2.5,2,4.5,2c2,0,3.6-0.7,4.8-2.2c1.2-1.5,1.9-3.4,1.9-5.8
		v-13.2h2.9V460.7z"/>
	<path class="st2" d="M437,440.1c-0.3-0.1-0.6-0.2-0.9-0.2c-0.3,0-0.6-0.1-0.9-0.1c-1.9,0-3.5,0.9-4.6,2.6c-1.1,1.8-1.7,4.1-1.7,7
		v11.3H426v-23.1h2.9v4.9h0.1c0.5-1.7,1.4-3,2.5-3.9c1.1-0.9,2.4-1.4,4-1.4c0.4,0,0.8,0,1.1,0.1c0.3,0,0.7,0.1,1,0.2L437,440.1z"/>
	<path class="st2" d="M478.7,458.5c-1.7,0.9-3.4,1.6-5.1,2.1c-1.8,0.5-3.6,0.7-5.4,0.7c-4.6,0-8.3-1.5-11-4.4
		c-2.8-2.9-4.1-6.9-4.1-11.9c0-5.1,1.5-9.2,4.5-12.4c3-3.2,7-4.8,11.9-4.8c1.7,0,3.2,0.2,4.7,0.5c1.5,0.4,2.9,0.9,4.5,1.7l-1.3,2.4
		c-1.3-0.7-2.6-1.2-3.8-1.5c-1.3-0.3-2.6-0.5-4.1-0.5c-4,0-7.2,1.3-9.6,3.9c-2.4,2.6-3.6,6-3.6,10.3c0,4.5,1.1,7.9,3.3,10.3
		c2.2,2.4,5.3,3.6,9.1,3.6c1.4,0,2.6-0.1,3.8-0.4c1.2-0.3,2.3-0.7,3.3-1.3v-9.8h-7.4v-2.7h10.4V458.5z"/>
	<path class="st2" d="M487.1,431.9c-0.6,0-1.2-0.2-1.6-0.6s-0.6-1-0.6-1.6c0-0.6,0.2-1.1,0.6-1.6c0.4-0.4,1-0.6,1.6-0.6
		s1.2,0.2,1.6,0.6c0.4,0.4,0.7,0.9,0.7,1.6c0,0.6-0.2,1.2-0.7,1.6C488.3,431.7,487.7,431.9,487.1,431.9z M488.5,460.7h-2.9v-23.1
		h2.9V460.7z"/>
	<path class="st2" d="M506.2,460.3c-0.6,0.3-1.2,0.5-1.8,0.6c-0.6,0.1-1.3,0.2-2,0.2c-1.7,0-3-0.5-3.9-1.5c-0.9-1-1.4-2.5-1.4-4.4
		v-15.2H493v-2.5h4.1v-5.9l2.9-0.9v6.8h6v2.5h-6v14.8c0,1.3,0.2,2.3,0.7,2.9c0.5,0.6,1.2,0.9,2.2,0.9c0.5,0,1-0.1,1.4-0.2
		c0.4-0.1,0.8-0.3,1.1-0.5L506.2,460.3z"/>
	<path class="st2" d="M523.8,460.7v-32.4h8.9c2.7,0,4.9,0.7,6.5,2c1.6,1.3,2.4,3.2,2.4,5.4c0,1.8-0.5,3.4-1.5,4.8
		c-1,1.4-2.3,2.4-4,3v0.1c2.1,0.3,3.8,1.1,5.1,2.5c1.2,1.4,1.9,3.2,1.9,5.3c0,2.7-0.9,5-2.8,6.7c-1.9,1.7-4.3,2.6-7.3,2.6H523.8z
		 M526.9,431.1v11.5h4.3c2.2,0,4-0.5,5.3-1.6c1.3-1.1,2-2.6,2-4.6c0-1.8-0.6-3.1-1.7-4c-1.1-0.9-2.8-1.3-5-1.3H526.9z M526.9,445.3
		V458h5.6c2.4,0,4.2-0.6,5.5-1.7c1.3-1.1,1.9-2.7,1.9-4.8c0-2.1-0.7-3.6-2.1-4.7c-1.4-1-3.5-1.5-6.3-1.5H526.9z"/>
	<path class="st2" d="M560.2,440.1c-0.3-0.1-0.6-0.2-0.9-0.2c-0.3,0-0.6-0.1-0.9-0.1c-1.9,0-3.5,0.9-4.6,2.6c-1.1,1.8-1.7,4.1-1.7,7
		v11.3h-2.9v-23.1h2.9v4.9h0.1c0.5-1.7,1.4-3,2.5-3.9c1.1-0.9,2.4-1.4,4-1.4c0.4,0,0.8,0,1.1,0.1c0.3,0,0.7,0.1,1,0.2L560.2,440.1z"
		/>
	<path class="st2" d="M581,460.7h-2.9v-4.1H578c-0.8,1.5-1.8,2.6-3.1,3.5c-1.3,0.8-2.8,1.2-4.4,1.2c-2.2,0-3.9-0.6-5.2-1.9
		c-1.3-1.3-2-2.9-2-4.9c0-2,0.7-3.6,2-4.9c1.3-1.3,3.4-2.1,6.1-2.5l6.7-0.9v-0.6c-0.1-2.1-0.5-3.6-1.5-4.6c-0.9-1-2.2-1.5-3.9-1.5
		c-1.3,0-2.5,0.2-3.6,0.7c-1.1,0.5-2.2,1.2-3.2,2.1l-1.7-1.8c1.2-1.2,2.6-2.1,4-2.7c1.4-0.6,3-0.9,4.7-0.9c2.7,0,4.7,0.7,6.1,2.2
		c1.4,1.5,2,3.6,2,6.5V460.7z M578.1,450.9v-2.3l-6,0.9c-2.1,0.3-3.6,0.8-4.5,1.6c-0.9,0.7-1.4,1.8-1.4,3.3c0,1.4,0.4,2.5,1.3,3.3
		s2,1.2,3.4,1.2c2.1,0,3.8-0.7,5.2-2.2C577.5,455.1,578.1,453.2,578.1,450.9z"/>
	<path class="st2" d="M606.5,460.7h-2.9v-13.3c0-2.6-0.5-4.6-1.4-5.9c-0.9-1.3-2.4-2-4.3-2c-2,0-3.7,0.8-5,2.3c-1.3,1.5-2,3.4-2,5.7
		v13.2h-2.9v-23.1h2.9v4h0.1c0.9-1.5,1.9-2.7,3.2-3.4c1.3-0.8,2.8-1.1,4.5-1.1c2.5,0,4.4,0.8,5.8,2.5c1.3,1.6,2,4,2,7.1V460.7z"/>
	<path class="st2" d="M629.3,459.4c-1.1,0.6-2.1,1.1-3.2,1.4c-1.1,0.3-2.2,0.4-3.5,0.4c-3.2,0-5.8-1-7.8-3.1c-2-2.1-3-4.9-3-8.5
		c0-3.7,1.1-6.7,3.2-9.1c2.1-2.3,5-3.5,8.4-3.5c1.1,0,2.1,0.1,3.1,0.4c1,0.2,2,0.6,3,1.2l-1.2,2.2c-0.8-0.4-1.6-0.8-2.4-0.9
		c-0.8-0.2-1.7-0.3-2.6-0.3c-2.6,0-4.7,0.9-6.3,2.7c-1.5,1.8-2.3,4.2-2.3,7c0,3,0.7,5.3,2.2,6.9c1.5,1.7,3.4,2.5,5.8,2.5
		c0.9,0,1.7-0.1,2.6-0.4c0.8-0.2,1.7-0.6,2.5-1.1L629.3,459.4z"/>
	<path class="st2" d="M652.9,460.7H650v-13.6c0-2.6-0.5-4.5-1.4-5.7s-2.4-1.9-4.3-1.9c-1.9,0-3.5,0.7-4.9,2.2
		c-1.4,1.5-2.1,3.5-2.1,6v13h-2.9v-34.2h2.9v15.1h0.1c0.9-1.5,2-2.7,3.3-3.4c1.3-0.8,2.8-1.1,4.5-1.1c2.6,0,4.5,0.8,5.8,2.4
		c1.3,1.6,2,3.9,2,7V460.7z"/>
	<path class="st2" d="M688.7,460.7h-2.9v-4.1h-0.1c-0.8,1.5-1.8,2.6-3.1,3.5c-1.3,0.8-2.8,1.2-4.4,1.2c-2.2,0-3.9-0.6-5.2-1.9
		c-1.3-1.3-2-2.9-2-4.9c0-2,0.7-3.6,2-4.9c1.3-1.3,3.4-2.1,6.1-2.5l6.7-0.9v-0.6c-0.1-2.1-0.5-3.6-1.5-4.6c-0.9-1-2.2-1.5-3.9-1.5
		c-1.3,0-2.5,0.2-3.6,0.7c-1.1,0.5-2.2,1.2-3.2,2.1l-1.7-1.8c1.2-1.2,2.6-2.1,4-2.7c1.4-0.6,3-0.9,4.7-0.9c2.7,0,4.7,0.7,6.1,2.2
		c1.4,1.5,2,3.6,2,6.5V460.7z M685.8,450.9v-2.3l-6,0.9c-2.1,0.3-3.6,0.8-4.5,1.6c-0.9,0.7-1.4,1.8-1.4,3.3c0,1.4,0.4,2.5,1.3,3.3
		s2,1.2,3.4,1.2c2.1,0,3.8-0.7,5.2-2.2C685.1,455.1,685.8,453.2,685.8,450.9z"/>
	<path class="st2" d="M714.2,460.7h-2.9v-13.3c0-2.6-0.5-4.6-1.4-5.9c-0.9-1.3-2.4-2-4.3-2c-2,0-3.7,0.8-5,2.3c-1.3,1.5-2,3.4-2,5.7
		v13.2h-2.9v-23.1h2.9v4h0.1c0.9-1.5,1.9-2.7,3.2-3.4c1.3-0.8,2.8-1.1,4.5-1.1c2.5,0,4.4,0.8,5.8,2.5c1.3,1.6,2,4,2,7.1V460.7z"/>
	<path class="st2" d="M737.3,456.6c-0.8,1.5-1.9,2.6-3.3,3.4c-1.4,0.8-3,1.2-4.8,1.2c-2.9,0-5.2-1-7-3.1c-1.8-2.1-2.7-4.9-2.7-8.5
		c0-3.8,1-6.8,2.9-9.1c1.9-2.3,4.5-3.5,7.7-3.5c1.7,0,3.1,0.3,4.3,1c1.2,0.7,2.2,1.7,2.9,3h0.1v-14.6h2.9v34.2h-2.9L737.3,456.6
		L737.3,456.6z M722.5,449.4c0,2.9,0.7,5.2,2,6.8c1.3,1.6,3.1,2.5,5.3,2.5c2.3,0,4.2-0.8,5.6-2.3c1.4-1.6,2.1-3.5,2.1-5.8v-3.9
		c0-2-0.7-3.7-2-5.1c-1.3-1.4-3-2.1-5.1-2.1c-2.3,0-4.2,0.9-5.7,2.6C723.2,443.9,722.5,446.4,722.5,449.4z"/>
	<path class="st2" d="M784.5,460.7h-3v-15.2h-17.6v15.2h-3v-32.4h3v14.5h17.6v-14.5h3V460.7z"/>
	<path class="st2" d="M808.6,460.7h-2.9v-4.1h-0.1c-0.8,1.5-1.8,2.6-3.1,3.5c-1.3,0.8-2.8,1.2-4.4,1.2c-2.2,0-3.9-0.6-5.2-1.9
		c-1.3-1.3-2-2.9-2-4.9c0-2,0.7-3.6,2-4.9c1.3-1.3,3.4-2.1,6.1-2.5l6.7-0.9v-0.6c-0.1-2.1-0.5-3.6-1.5-4.6c-0.9-1-2.2-1.5-3.9-1.5
		c-1.3,0-2.5,0.2-3.6,0.7c-1.1,0.5-2.2,1.2-3.2,2.1l-1.7-1.8c1.2-1.2,2.6-2.1,4-2.7c1.4-0.6,3-0.9,4.7-0.9c2.7,0,4.7,0.7,6.1,2.2
		c1.4,1.5,2,3.6,2,6.5V460.7z M805.7,450.9v-2.3l-6,0.9c-2.1,0.3-3.6,0.8-4.5,1.6c-0.9,0.7-1.4,1.8-1.4,3.3c0,1.4,0.4,2.5,1.3,3.3
		s2,1.2,3.4,1.2c2.1,0,3.8-0.7,5.2-2.2C805.1,455.1,805.7,453.2,805.7,450.9z"/>
	<path class="st2" d="M813.4,459l1.4-2.3c0.9,0.6,1.8,1.1,2.8,1.5c1,0.4,2.1,0.6,3.2,0.6c1.7,0,3.1-0.4,3.9-1.1s1.3-1.8,1.3-3.1
		c0-1-0.4-1.9-1.1-2.6c-0.7-0.7-2-1.3-4-1.9c-2.6-0.7-4.4-1.6-5.4-2.7c-1-1.1-1.5-2.4-1.5-3.9c0-1.9,0.7-3.4,2.1-4.6
		c1.4-1.2,3.3-1.8,5.6-1.8c1.1,0,2.2,0.1,3.3,0.4c1.1,0.3,2.2,0.8,3.3,1.5l-1.4,2.2c-0.9-0.5-1.8-0.9-2.6-1.2
		c-0.9-0.3-1.8-0.4-2.7-0.4c-1.6,0-2.7,0.3-3.6,1c-0.8,0.6-1.2,1.5-1.2,2.6c0,1.1,0.4,1.9,1.1,2.5c0.7,0.6,2,1.2,3.9,1.7
		c2.4,0.7,4.2,1.6,5.3,2.7c1.1,1.1,1.7,2.5,1.7,4.2c0,2.2-0.7,3.9-2.2,5.1c-1.4,1.2-3.4,1.9-5.9,1.9c-1.3,0-2.6-0.2-3.9-0.6
		C815.7,460.3,814.5,459.7,813.4,459z"/>
	<path class="st2" d="M852.9,460.7H850v-13.6c0-2.6-0.5-4.5-1.4-5.7c-0.9-1.2-2.4-1.9-4.3-1.9c-1.9,0-3.5,0.7-4.9,2.2
		c-1.4,1.5-2.1,3.5-2.1,6v13h-2.9v-34.2h2.9v15.1h0.1c0.9-1.5,2-2.7,3.3-3.4c1.3-0.8,2.8-1.1,4.5-1.1c2.6,0,4.5,0.8,5.8,2.4
		c1.3,1.6,2,3.9,2,7V460.7z"/>
</g>
</svg>
